<?xml version="1.0" encoding="utf-8"?>
<!-- Generator: Adobe Illustrator 23.0.3, SVG Export Plug-In . SVG Version: 6.00 Build 0)  -->
<svg version="1.1" xmlns="http://www.w3.org/2000/svg" xmlns:xlink="http://www.w3.org/1999/xlink" x="0px" y="0px"
	 viewBox="0 0 746 746" style="enable-background:new 0 0 746 746;" xml:space="preserve">
<style type="text/css">
	.st0{display:none;}
	.st1{display:inline;stroke:#000000;stroke-width:0.75;stroke-miterlimit:10;}
	.st2{display:inline;}
	.st3{display:inline;fill:#FFFFFF;}
	.st4{display:inline;fill:none;stroke:#000000;stroke-width:10;stroke-miterlimit:10;}
	.st5{fill:none;}
	.st6{fill:#EAEAEA;}
	.st7{opacity:0.24;}
	.st8{stroke:#000000;stroke-width:2;stroke-miterlimit:10;}
	.st9{opacity:0.25;stroke:#000000;stroke-width:2;stroke-miterlimit:10;}
	.st10{opacity:0.23;}
	.st11{fill:#FFFFFF;}
	.st12{fill:#A09F9F;}
	.st13{fill:none;stroke:#757574;stroke-width:23;stroke-miterlimit:10;}
	.st14{display:inline;fill:none;stroke:#000000;stroke-width:0.75;stroke-miterlimit:10;}
	.st15{fill:none;stroke:#000000;stroke-width:0.75;stroke-miterlimit:10;}
</style>
<g id="Layer_1">
</g>
<g id="Layer_2_copy" class="st0">
	<path class="st1" d="M4694.94,190.77"/>
	<path class="st1" d="M3930.07,190.77"/>
	<path class="st1" d="M3930.07,609.26"/>
	<path class="st1" d="M4694.94,609.26"/>
	<path class="st2" d="M3981.06,218.02c-19.98-8.36-37.13-17.5-50.99-27.25v418.48c13.86-9.75,31.02-18.89,50.99-27.25V218.02z"/>
	<path class="st1" d="M3930.07,190.77c13.86,9.75,31.02,18.89,50.99,27.25"/>
	<path class="st1" d="M3981.06,582.01c-19.98,8.36-37.13,17.5-50.99,27.25"/>
	<path class="st2" d="M4032.05,235.91v328.22c15.96-4.7,33.01-9,50.99-12.86V248.77C4065.06,244.91,4048.01,240.6,4032.05,235.91z"
		/>
	<polygon class="st3" points="4018.15,363.34 4018.15,435.45 4096.94,357.5 4096.94,285.39 	"/>
	<polygon class="st3" points="4426.22,372.04 4426.22,444.15 4505.02,366.2 4505.02,294.09 	"/>
	<polygon class="st3" points="4426.08,372.04 4426.08,444.15 4504.88,366.2 4504.88,294.09 	"/>
	<path class="st1" d="M4032.05,235.91c15.96,4.7,33.01,9,50.99,12.86"/>
	<path class="st1" d="M4083.04,551.26c-17.98,3.86-35.03,8.16-50.99,12.86"/>
	<path class="st2" d="M4134.03,258.13V541.9c16.45-2.54,33.47-4.74,50.99-6.58V264.71C4167.51,262.88,4150.48,260.68,4134.03,258.13
		z"/>
	<path class="st1" d="M4134.03,258.13c16.45,2.54,33.47,4.74,50.99,6.58"/>
	<path class="st1" d="M4185.03,535.32c-17.52,1.83-34.54,4.04-50.99,6.58"/>
	<path class="st2" d="M4236.02,268.91v262.21c16.68-1.01,33.69-1.7,50.99-2.04V270.95C4269.71,270.61,4252.69,269.92,4236.02,268.91
		z"/>
	<path class="st1" d="M4236.02,268.91c16.68,1.01,33.69,1.7,50.99,2.04"/>
	<path class="st1" d="M4287.01,529.08c-17.3,0.34-34.32,1.03-50.99,2.04"/>
	<path class="st2" d="M4338,270.95v258.14c17.3,0.34,34.32,1.03,50.99,2.04V268.91C4372.32,269.92,4355.3,270.61,4338,270.95z"/>
	<path class="st1" d="M4338,270.95c17.3-0.34,34.32-1.03,50.99-2.04"/>
	<path class="st1" d="M4388.99,531.12c-16.68-1.01-33.69-1.7-50.99-2.04"/>
	<path class="st2" d="M4439.98,264.71v270.61c17.52,1.83,34.54,4.04,50.99,6.58V258.13C4474.53,260.68,4457.5,262.88,4439.98,264.71
		z"/>
	<path class="st1" d="M4439.98,264.71c17.52-1.83,34.54-4.04,50.99-6.58"/>
	<path class="st1" d="M4490.98,541.9c-16.45-2.54-33.47-4.74-50.99-6.58"/>
	<path class="st2" d="M4541.97,248.77v302.49c17.98,3.86,35.03,8.16,50.99,12.86V235.91C4577,240.6,4559.95,244.91,4541.97,248.77z"
		/>
	<path class="st1" d="M4541.97,248.77c17.98-3.86,35.03-8.16,50.99-12.86"/>
	<path class="st1" d="M4592.96,564.12c-15.96-4.7-33.01-9-50.99-12.86"/>
	<path class="st2" d="M4643.95,582.01c19.98,8.36,37.13,17.5,50.99,27.25V190.77c-13.86,9.75-31.02,18.89-50.99,27.25V582.01z"/>
	<path class="st1" d="M4643.95,218.02c19.98-8.36,37.13-17.5,50.99-27.25"/>
	<path class="st1" d="M4694.94,609.26c-13.86-9.75-31.02-18.89-50.99-27.25"/>
	<path class="st4" d="M3924.65,187.18c27.64,21.82,61.64,33.82,95.64,45.82c56,19,113,26,171,33c3,0,7,0,10,0c71,7,141,8,212,1
		c74-7,147-17,217-42c26-10,50-22,70.9-38.83"/>
	<ellipse class="st4" cx="4312.5" cy="668.83" rx="422.49" ry="140"/>
	<rect x="4097.09" y="230.63" class="st3" width="22.9" height="57.68"/>
	<rect x="4301.05" y="242.34" class="st3" width="22.9" height="57.68"/>
	<rect x="4505.02" y="220.83" class="st3" width="22.9" height="57.68"/>
	
		<rect x="4607" y="548.16" transform="matrix(-1 -1.224647e-16 1.224647e-16 -1 9236.9072 1154.0029)" class="st3" width="22.9" height="57.68"/>
	
		<rect x="4505.02" y="521.27" transform="matrix(-1 -1.224647e-16 1.224647e-16 -1 9032.9414 1100.2272)" class="st3" width="22.9" height="57.68"/>
	
		<rect x="4301.05" y="509.56" transform="matrix(-1 -1.224647e-16 1.224647e-16 -1 8625.0098 1076.8085)" class="st3" width="22.9" height="57.68"/>
	
		<rect x="4097.09" y="531.07" transform="matrix(-1 -1.224647e-16 1.224647e-16 -1 8217.0771 1119.8179)" class="st3" width="22.9" height="57.68"/>
	<path class="st2" d="M4006.6,447.7l76.44-78.58v15.75v81.54h-50.99C4032.05,466.41,4034,442.62,4006.6,447.7z"/>
	<polygon class="st3" points="4426.08,363.34 4426.08,435.45 4504.88,357.5 4504.88,285.39 	"/>
	<polygon class="st2" points="4579.06,409.34 4579.06,481.45 4657.85,403.5 4657.85,331.39 	"/>
	<path class="st2" d="M4414.49,438.99l76.44-78.58v15.75v81.54h-50.99C4439.94,457.71,4441.89,433.92,4414.49,438.99z"/>
	<path class="st3" d="M3917.03,173.05c1.44,2.16,2.81,4.37,4.01,6.68c2.11,4.04-1.61,7.75-5.02,7.54v30.75h14.04v-44.98H3917.03z"/>
	<path class="st3" d="M3801,238.93c1.44,2.16,2.81,4.37,4.01,6.68c2.11,4.04-1.61,7.75-5.02,7.54v30.75h14.04v-44.98H3801z"/>
	<rect x="4083.04" y="224.34" class="st3" width="50.99" height="61.05"/>
	<rect x="4083.04" y="504.8" class="st3" width="50.99" height="61.05"/>
	<rect x="4185.03" y="234.19" class="st3" width="50.99" height="61.05"/>
	<rect x="4287.42" y="247.99" class="st3" width="50.99" height="61.05"/>
	<rect x="4287.01" y="492.81" class="st3" width="50.99" height="61.05"/>
	<rect x="4490.98" y="511.38" class="st3" width="50.99" height="61.05"/>
	<rect x="4490.98" y="227.61" class="st3" width="50.99" height="61.05"/>
	<rect x="4694.94" y="159" class="st3" width="50.99" height="486.85"/>
	<rect x="4694.94" y="193.82" class="st3" width="50.99" height="61.05"/>
	<rect x="4694.94" y="163.29" class="st3" width="50.99" height="61.05"/>
	<rect x="4136.94" y="558.23" class="st3" width="50.99" height="61.05"/>
	<rect x="3879.08" y="575.32" class="st3" width="50.99" height="61.05"/>
	<rect x="3879.08" y="309.04" class="st3" width="50.99" height="61.05"/>
	<rect x="3879.08" y="233.01" class="st3" width="50.99" height="61.05"/>
	<rect x="4592.96" y="531.12" class="st3" width="50.99" height="61.05"/>
</g>
<g id="Layer_2_copy_2">
	<path d="M2198.06,818.37c0-0.19-0.07-0.47-0.2-0.83L2198.06,818.37z"/>
	<polygon class="st5" points="2523.77,249.12 2544.49,249.12 2552.15,231.18 2552.15,201.71 2523.77,201.71 	"/>
	<g>
		<g>
			<g>
				<polyline class="st6" points="176,226 176.02,219.26 310.81,95.15 311.48,71.79 313.48,67.12 391.55,45.1 398.23,46.44 
					400.89,56.45 511.66,89.81 517,95.81 517,107.83 517.67,124.51 518.33,132.51 529.01,137.19 554.37,139.85 568.38,147.19 
					572.38,153.87 569.71,176.55 557.7,255.96 557.04,262.63 545.03,272.64 535.02,277.98 490.98,286.65 465.62,292.66 
					439.6,278.65 426.25,269.31 407.57,272.64 392.65,278.96 379.54,299.33 344.38,336.88 332.17,343.37 311.48,342.71 
					268.11,321.35 209.39,273.98 182.03,246.62 170.02,229.27 				"/>
				<g>
					<g class="st7">
						<path class="st8" d="M522.51,133.28c0,0-39.92,27.7-40.49,50.32l-3.42,24.32c0,0-3.42,52.6-0.57,59.38
							c2.85,6.79,8.55,14.7,8.55,14.7l35.33-6.22l21.66-14.7l14.82-21.49l11.97-83.14l-7.41-15.27l-13.09-4.16L522.51,133.28z"/>
						<path class="st9" d="M486.39,282.47l-0.16-0.22c-0.06-0.08-5.76-8.03-8.6-14.79c-2.86-6.8,0.4-57.42,0.54-59.58l3.42-24.35
							c0.24-9.45,7.16-20.87,20.59-33.89c9.96-9.66,19.99-16.65,20.09-16.72l0.14-0.1l27.51,3.76l13.34,4.24l7.55,15.55l-0.02,0.13
							l-11.98,83.24l-14.99,21.68l-21.73,14.76L486.39,282.47z M522.62,133.73c-1.23,0.87-10.57,7.54-19.85,16.54
							c-9.11,8.84-20.03,21.8-20.32,33.34l-3.42,24.37c-0.03,0.49-3.38,52.54-0.6,59.16c2.54,6.04,7.42,13.08,8.35,14.4l34.98-6.16
							l21.51-14.61l14.72-21.34l11.94-82.91l-7.27-14.99l-12.91-4.11L522.62,133.73z"/>
					</g>
					<g class="st7">
						<polygon class="st8" points="360.82,152.36 336.34,139.57 335.29,136.41 362.88,145.86 						"/>
					</g>
					<g class="st10">
						<path class="st8" d="M414.31,266.12l-30.98,27.8l-38.29,44.6l-2.22-0.68l-0.03,0.09l-5.62,2.32l-30.31,1.5l-10.23-6.13
							l-4.83-3.72c-2.08-0.58-3.43-0.97-3.43-0.97l-20.6-14.1l-3.9-0.15l-17.67-11.97c0,0,35.33-10.83,45.02-42.74
							c9.69-31.91,20.04-77.51,20.04-77.51s28.16,57.34,43.93,66.03c15.76,8.69,11.26,5.21,11.26,5.21L414.31,266.12z"/>
					</g>
					<path class="st8" d="M311.72,344.09c0.18,0,0.37-0.01,0.55-0.01l28.42-1.42c3.07-0.15,5.95-1.59,7.91-3.95l48.23-57.87
						c0.48-0.57,1.05-1.04,1.7-1.4l13.64-7.44c1.69-0.92,3.73-0.96,5.45-0.1l41.55,20.78c2.26,1.13,4.86,1.45,7.32,0.9l72.6-16.13
						c1.63-0.36,3.19-1.11,4.49-2.15l13.05-10.44c2.21-1.77,3.64-4.29,4.03-7.09l14.28-103.1c0.6-4.3-1.4-8.56-5.07-10.86
						l-7.69-4.81c-1.23-0.77-2.6-1.29-4.03-1.52l-32.86-5.48c-2.75-0.46-4.81-2.79-4.92-5.57l-1.2-30.03
						c-0.19-4.77-3.41-8.86-8-10.16L407.23,56.75c-2.31-0.65-3.97-2.61-4.24-4.99c-0.14-1.19-0.36-2.38-0.89-3.45
						c-2.58-5.16-8.04-7.34-12.98-5.98L317.1,62.09c-4.77,1.31-8.1,5.68-8.1,10.63v17.43c0,1.62-0.68,3.18-1.86,4.29L174.67,218.93
						l-1.74,1.64h0c-4.36,4.1-4.68,10.82-0.73,15.31l31.94,36.29c0.45,0.51,0.94,0.98,1.48,1.39l62.45,48.95
						c0.53,0.41,1.1,0.78,1.7,1.1l36.85,19.23C308.19,343.66,309.95,344.09,311.72,344.09z M391.9,47.06c1.6,0,3.17,0.65,4.33,1.89
						c0.85,0.91,1.39,2.1,1.52,3.35c0.5,4.47,3.62,8.15,7.94,9.38l103.94,29.48c2.45,0.69,4.18,2.89,4.28,5.43l1.2,30.03
						c0.21,5.19,4.08,9.57,9.2,10.43l32.86,5.48c0.76,0.13,1.5,0.4,2.15,0.81l7.69,4.81c1.97,1.23,3.03,3.51,2.71,5.8l-14.28,103.1
						c-0.21,1.5-0.97,2.85-2.15,3.79l-13.05,10.44c-0.7,0.56-1.53,0.96-2.4,1.15l-72.6,16.13c-1.32,0.29-2.71,0.12-3.91-0.48
						l-41.55-20.78c-3.22-1.61-7.04-1.54-10.2,0.18l-13.64,7.44c-1.22,0.66-2.3,1.55-3.19,2.62l-48.23,57.87
						c-1.05,1.26-2.59,2.03-4.23,2.11l-28.42,1.42c-1.06,0.05-2.09-0.18-3.02-0.66l-36.85-19.23c-0.32-0.17-0.63-0.37-0.91-0.59
						l-62.45-48.95c-0.28-0.22-0.55-0.47-0.79-0.74l-31.94-36.3c-2.11-2.4-1.94-5.99,0.39-8.18L310.53,98.18
						c2.21-2.07,3.47-5,3.47-8.03V72.71c0-2.65,1.77-4.98,4.33-5.68l72.01-19.77C390.85,47.13,391.38,47.06,391.9,47.06z"/>
					<g>
						<polygon class="st8" points="515.44,100.06 476.37,113.61 517,125.96 						"/>
					</g>
					<g>
						<path class="st8" d="M549.79,138.19c-3.43,3.81-14.71,12.75-4.11,13.24c11.3,0.52,21.77,8.06,21.77,8.06l3.48-9.91
							L549.79,138.19z"/>
						<path class="st8" d="M568.52,162.88l-2.32-1.67c-0.1-0.07-10.12-7.17-20.62-7.66c-1.26-0.06-5.11-0.24-6.22-3.12
							c-1.37-3.57,2.92-7.79,6.7-11.51c0.82-0.81,1.6-1.58,2.13-2.16l1.12-1.25l24.23,13.04L568.52,162.88z M543.39,148.85
							c0.23,0.12,0.87,0.37,2.39,0.44c8.65,0.4,16.7,4.59,20.55,6.92l1.98-5.63l-18.11-9.74c-0.36,0.36-0.74,0.74-1.14,1.13
							C547.55,143.46,543.6,147.35,543.39,148.85z"/>
					</g>
					<g>
						<polygon class="st8" points="558.77,229.95 509.19,274.98 534.63,271.08 553.82,254.83 						"/>
						<path class="st8" d="M500.51,281.49l59.63-54.15l-6.37,31.97l-20.21,17.12L500.51,281.49z M553.41,239.23l-39.53,35.89
							l17.83-2.73l18.15-15.37L553.41,239.23z"/>
					</g>
					<g>
						<polygon class="st8" points="385.56,43.46 360.74,153.12 402.34,57.9 397.54,47.49 393.54,44.51 						"/>
						<path class="st8" d="M360.94,153.2l-0.4-0.13L385.4,43.22l8.23,1.08l0.05,0.03l4.07,3.06l4.84,10.5l-0.04,0.09L360.94,153.2z
							 M385.73,43.7l-24.28,107.27l40.66-93.06l-4.74-10.28l-3.91-2.91L385.73,43.7z"/>
					</g>
				</g>
			</g>
			<g>
				<path class="st5" d="M195,549.81v-56.85v-1.39c-0.19-3.71-2.05-13.4-16.48-10.72l13.78-14.17l-6.3,6.24v-46.69l9-8.9v-66.38
					c-2.8-0.86-5.6-1.75-8.39-2.7c-7.86-2.77-15.81-5.58-23.61-8.73v221.37c6.08-2.51,12.6-4.92,19.53-7.22
					C186.58,552.34,190.75,551.05,195,549.81z"/>
				<path class="st5" d="M582,415.13v-75.46c-2.41,1.01-4.88,2.01-7.45,3l-0.07,0.03c-8.11,2.9-16.28,5.47-24.48,7.77v96.33
					L582,415.13z"/>
				<path d="M195,490.77v1.36C195,492.13,195.04,491.61,195,490.77z"/>
				<path class="st11" d="M188.26,341.32c-19.18-6.77-38.94-13.76-55.27-25.25c-1.26-0.89-2.99,0.01-2.99,1.55v4.14l1,0v22.41v38.71
					v9.5v38.71v130.14v17.68v3.84v0.22c0,1.53,1.71,2.44,2.97,1.57c12.8-8.79,29.94-16.77,51.09-23.78
					c12.8-4.24,26.69-7.99,41.44-11.24c0.87-0.19,1.5-0.96,1.5-1.85v-1.83v-3.28c-11.35,2.43-22.21,5.15-32.5,8.16
					c-4.32,1.26-8.55,2.57-12.66,3.93c-6.06,2.01-11.81,4.1-17.23,6.27c-1.25,0.5-2.61-0.41-2.61-1.76v-217.8
					c0-1.34,1.35-2.25,2.6-1.76c6.96,2.73,14.02,5.23,21.01,7.69c2.35,0.8,4.7,1.56,7.05,2.29c0.8,0.25,1.34,0.98,1.34,1.81v52.36
					v9.68c0,1.69,2.04,2.54,3.24,1.35l28.2-27.9c0.36-0.36,0.56-0.84,0.56-1.35v-8.01V358.2v-3.89v-1.05c0-0.9-0.63-1.67-1.5-1.85
					C213.01,348.74,200.56,345.49,188.26,341.32z"/>
				<path class="st11" d="M326.03,364c-1.1-0.07-2.03,0.79-2.03,1.89v1.91v3.15v13.37v144.89l0,0c-10.14,0.61-20.12,1.41-29.92,2.4
					c-1.12,0.11-2.08-0.76-2.08-1.89V383.6h0v-15.66v-4.64c0-0.96-0.71-1.77-1.67-1.89c-9.33-1.13-18.73-2.3-28.16-3.65
					c-1.14-0.16-2.17,0.72-2.17,1.88v1.41v3.48v13.63v137.69v20.02c0,0.03,0.03,0.06,0.06,0.05c5.17-0.79,10.42-1.53,15.73-2.21
					c-5.32,0.68-10.57,1.42-15.75,2.22c-0.03,0-0.05,0.03-0.05,0.05v3.15v0.94c0,1.16,1.03,2.05,2.18,1.88
					c28.72-4.36,59.78-6.97,91.96-7.67c1.03-0.02,1.86-0.86,1.86-1.9v-3.72l0,0v-19.81V371.81c0.63,0,1,0.01,1,0.01v-4.5
					c0-1.03-0.81-1.87-1.84-1.9C345.57,365.15,335.87,364.67,326.03,364z"/>
				<path class="st11" d="M192.39,466.64l-9.12,9.38c-1.39,1.43-0.46,3.81,1.53,3.95c8.75,0.64,10.05,7.77,10.2,10.79
					c0.04,0.83,0,1.35,0,1.35v58.05c10.13-2.96,20.82-3.16,32-5.55v-28.41v-24.09v-51.17v-8.55v-1.34L192.39,466.64z"/>
				<path class="st11" d="M572.9,336.14c-17.59,6.28-35.48,11.04-53.39,14.76c-0.88,0.18-1.51,0.96-1.51,1.86v2.47v3.46v21.57
					v139.77v21.81c2.33,0.5,4.63,1.01,6.92,1.53c-1.53-0.35-3.06-0.69-4.61-1.03c-1.18-0.26-2.31,0.65-2.31,1.86v0.87v3.19
					c10.3,2.23,20.19,4.71,29.57,7.44c1.22,0.35,2.43-0.55,2.43-1.82v-0.27v-3.27c-1.9-0.55-3.82-1.1-5.76-1.63
					c1.94,0.54,3.86,1.08,5.76,1.63v-17.44v-39.01c0-0.51,0.2-0.99,0.56-1.35l31.44-31.1v71.13v29.42v3.51v2.25
					c0,0.76,0.46,1.44,1.16,1.75c11.23,4.84,20.88,10.02,28.87,15.51c1.26,0.87,2.97-0.03,2.97-1.57v-0.65v-3.84V358.05v-19.35
					v-17.24c0,0,0,0,0,0v-2.12v-1.93v-0.05c0-1.55-1.75-2.45-3.01-1.54C601.38,323.49,588.79,330.02,572.9,336.14z M550,442.21
					v-90.35c0-0.85,0.56-1.59,1.38-1.82c7.74-2.2,15.45-4.64,23.1-7.38l0.07-0.03c2.57-0.99,5.04-1.99,7.45-3
					c2.35-0.99,4.62-1.99,6.83-3.01c-2.2,1.02-4.48,2.02-6.83,3.01v75.46v0l-28.76,28.46C552.04,444.75,550,443.9,550,442.21z
					 M591.41,406.62l-4.4,4.35L591.41,406.62L591.41,406.62z"/>
				<path class="st11" d="M436.3,362.22c-14.69,1.44-29.5,2.36-44.51,2.77c-1.55,0.04-2.79,1.3-2.79,2.86v3.55V392l0,0v116.39h0
					v19.81v4.48c0,1.03,0.83,1.87,1.86,1.9c32.18,0.71,63.24,3.35,91.96,7.74c1.15,0.18,2.18-0.71,2.18-1.87v-0.5v-3.22
					c-4.52-0.81-9.84-1.55-15.22-2.24c5.38,0.69,10.7,1.44,15.22,2.24v-16.11v-83.14v-0.09v-5.51l1,0.03v-2.21
					c-0.31-1.71-2.38-2.55-3.57-1.32l-37.81,38.86l-3.78,3.88c-1.15,1.18-0.35,3.19,1.3,3.22c0.89,0.02,1.72,0.1,2.48,0.23
					c1.01,0.18,1.91,0.45,2.7,0.8c0.02,0.01,0.04,0.02,0.06,0.03c6.68,2.99,6.01,11.61,6.01,11.61h0.6v45.96
					c-10.21-1.04-20.63-1.88-31.21-2.53c-1-0.06-1.79-0.89-1.79-1.89V370.72c-8.66,0.62-17.37,1.06-26.14,1.34
					c8.77-0.28,17.48-0.72,26.14-1.34c5.36-0.38,10.7-0.83,16.03-1.35c4.93-0.46,9.89-0.93,14.88-1.45c1.12-0.11,2.1,0.76,2.1,1.89
					v41.31c0,2.54,3.07,3.82,4.88,2.03l26.56-26.28c0.36-0.36,0.56-0.84,0.56-1.35v-6.44v-16.23v-3.1v0c0-1.74-1.54-3.07-3.27-2.83
					C467.04,359.13,451.5,360.79,436.3,362.22z"/>
			</g>
			<g>
				<path class="st12" d="M225.31,600.94c0-1.04,0-2.08,0-3.12c2.7-0.15,5.39-0.3,8.09-0.45c0,1.28,0,2.56,0,3.84
					c0,4,1.72,5.4,4.45,5.34c2.73-0.06,4.44-1.58,4.43-5.86c-0.01-4.76-1.73-7.78-7.34-12.41c-7.16-5.92-9.48-9.96-9.48-16.22
					c0-8.53,4.41-14.4,12.69-15.89c8.29-1.47,12.42,3.3,12.45,12.75c0,0.81,0,1.63,0.01,2.44c-2.7,0.3-5.39,0.62-8.08,0.94
					c0-0.99,0-1.97-0.01-2.96c-0.01-4.12-1.56-5.46-4.28-5.05c-2.71,0.41-4.26,2.18-4.26,6.02c0.01,4.11,1.79,6.78,7.4,11.4
					c7.17,6,9.44,10.69,9.46,17.99c0.03,9.63-4.48,15.02-12.91,14.98C229.52,614.62,225.31,609.63,225.31,600.94z"/>
				<path class="st12" d="M255.62,554.19c4.2-0.62,8.4-1.21,12.6-1.77c8.56-1.15,12.8,3.88,12.83,13.97
					c0.01,2.07,0.02,4.14,0.02,6.2c0.04,10.1-4.15,15.78-12.72,16.21c-1.35,0.07-2.7,0.15-4.05,0.23
					c0.03,8.26,0.06,16.51,0.09,24.77c-2.86,0.01-5.72,0.01-8.58,0.02C255.74,593.94,255.68,574.07,255.62,554.19z M268.32,580.04
					c2.73-0.2,4.2-1.71,4.19-6.14c-0.01-2.45-0.02-4.89-0.03-7.34c-0.02-4.43-1.5-5.68-4.23-5.37c-1.35,0.15-2.7,0.31-4.05,0.47
					c0.02,6.23,0.04,12.46,0.07,18.68C265.61,580.24,266.96,580.14,268.32,580.04z"/>
				<path class="st12" d="M285.23,598.73c-0.04-11.11-0.09-22.21-0.13-33.32c-0.04-10.11,4.54-16.45,12.97-17.29
					c8.43-0.82,13.07,4.87,13.1,15.41c0.04,11.53,0.08,23.06,0.12,34.59c0.03,10.55-4.55,16.57-12.97,16.54
					C289.89,614.64,285.27,608.85,285.23,598.73z M302.7,598.95c-0.04-11.84-0.09-23.68-0.13-35.52c-0.02-4.65-1.74-6.29-4.47-6.06
					c-2.73,0.23-4.44,2.13-4.43,6.71c0.04,11.69,0.09,23.38,0.13,35.07c0.02,4.59,1.74,6.31,4.47,6.27
					C301.01,605.39,302.72,603.61,302.7,598.95z"/>
				<path class="st12" d="M316.9,547.51c4.25-0.3,8.5-0.56,12.75-0.79c8.92-0.48,12.77,4.53,12.79,14.96c0,1.38,0.01,2.77,0.01,4.15
					c0.01,6.95-1.78,11.43-5.6,13.44c0,0.06,0,0.13,0,0.19c4.3,1.54,5.72,6.54,5.73,14.17c0.01,3.96,0.01,7.92,0.02,11.88
					c0.01,3.28,0.09,5.69,0.95,8.21c-2.91,0-5.82,0-8.74,0.01c-0.47-1.73-0.79-2.78-0.8-8.26c-0.01-4.1-0.02-8.19-0.03-12.29
					c-0.01-6.24-1.5-8.23-5.41-8.13c-0.99,0.02-1.98,0.05-2.97,0.07c0.03,9.54,0.05,19.08,0.08,28.61c-2.86,0-5.72,0.01-8.58,0.01
					C317.04,591.65,316.97,569.58,316.9,547.51z M328.71,575.46c3.2-0.1,5.15-1.88,5.14-7.26c0-1.73-0.01-3.46-0.01-5.18
					c-0.01-4.8-1.35-6.86-4.4-6.72c-1.3,0.06-2.61,0.12-3.91,0.19c0.02,6.36,0.03,12.72,0.05,19.08
					C326.63,575.53,327.67,575.49,328.71,575.46z"/>
				<path class="st12" d="M355.03,555.46c-3,0.06-6,0.13-9,0.21c-0.01-3.22-0.01-6.45-0.02-9.67c8.88-0.3,17.75-0.45,26.63-0.44
					c0,3.24,0,6.49,0,9.73c-3,0-6,0.01-9,0.04c0.01,19.46,0.02,38.91,0.03,58.37c-2.86,0-5.72,0-8.58,0
					C355.08,594.28,355.05,574.87,355.03,555.46z"/>
				<path class="st12" d="M375.3,597.54c0-1.3,0-2.6,0-3.89c2.71,0,5.42,0.01,8.12,0.02c0,1.56,0,3.11,0,4.67
					c0,4.86,1.71,6.62,4.44,6.62c2.73,0.01,4.45-1.73,4.46-6.78c0.01-5.62-1.71-9.23-7.33-15.39c-7.19-7.93-9.53-13.47-9.53-21.26
					c0-10.7,4.47-16.95,12.85-16.79c8.38,0.18,12.52,6.55,12.5,17.36c0,0.93,0,1.87,0,2.8c-2.71-0.07-5.42-0.13-8.14-0.18
					c0-1.16,0-2.33,0-3.49c0.01-4.85-1.56-6.73-4.3-6.78c-2.74-0.05-4.31,1.78-4.31,6.45c0,4.96,1.79,8.57,7.42,14.76
					c7.18,7.96,9.44,13.4,9.42,21.81c-0.02,11.01-4.56,17.19-12.98,17.2C379.51,614.67,375.3,608.44,375.3,597.54z"/>
				<path class="st12" d="M430.97,547.69c4.33,0.32,8.65,0.67,12.97,1.06c8.9,0.83,12.71,6.1,12.67,15.91c0,0.85-0.01,1.7-0.01,2.55
					c-0.03,6.55-1.76,10.54-5.59,12.17c0,0.06,0,0.12,0,0.18c4.6,2.09,6.37,6.91,6.35,13.64c-0.01,1.82-0.01,3.64-0.02,5.46
					c-0.04,9.8-4.5,15.07-13.08,15.08c-4.5-0.01-9-0.01-13.49-0.02C430.83,591.71,430.9,569.7,430.97,547.69z M442.83,575.16
					c3.2,0.17,5.16-1.38,5.18-6.55c0-1.2,0.01-2.4,0.01-3.6c0.02-4.61-1.3-6.75-4.35-6.99c-1.38-0.11-2.76-0.21-4.14-0.31
					c-0.02,5.76-0.04,11.52-0.06,17.28C440.6,575.04,441.72,575.1,442.83,575.16z M444.29,604.46c2.89,0.04,4.45-1.51,4.47-6.3
					c0.01-1.87,0.01-3.75,0.02-5.62c0.02-5.99-1.61-7.91-5.51-8.07c-1.27-0.05-2.55-0.1-3.82-0.15c-0.02,6.69-0.05,13.38-0.07,20.08
					C441.01,604.42,442.65,604.44,444.29,604.46z"/>
				<path class="st12" d="M469.14,551.41c3.87,0.47,7.74,0.97,11.6,1.5c2.88,20.7,5.77,41.02,8.67,60.9
					c-2.86-0.01-5.72-0.01-8.58-0.02c-0.51-4.03-1.01-8.07-1.52-12.13c0,0.06,0,0.12,0,0.17c-3.25-0.09-6.5-0.18-9.75-0.26
					c-0.54,4.05-1.07,8.11-1.61,12.19c-2.65,0-5.3-0.01-7.96-0.01C463.06,592.64,466.1,571.84,469.14,551.41z M478.33,593.52
					c-1.24-10.14-2.47-20.36-3.71-30.66c-0.05-0.01-0.1-0.01-0.16-0.02c-1.28,10.03-2.57,20.15-3.86,30.34
					C473.19,593.29,475.76,593.4,478.33,593.52z"/>
				<path class="st12" d="M493.72,554.8c4.22,0.65,8.43,1.33,12.65,2.05c8.83,1.55,12.61,6.45,12.62,14.85c0,1.12,0,2.24,0,3.37
					c0,5.63-1.79,9.02-5.59,10.27c0,0.05,0,0.11,0,0.16c4.27,1.76,5.67,5.94,5.67,12.11c0,3.21,0,6.42,0,9.62
					c0,2.66,0.08,4.62,0.94,6.65c-2.91-0.01-5.82-0.02-8.74-0.02c-0.47-1.45-0.78-2.33-0.77-6.92c0-3.43,0.01-6.86,0.01-10.29
					c0.01-5.22-1.47-7.03-5.36-7.32c-0.99-0.07-1.97-0.14-2.96-0.21c-0.02,8.24-0.04,16.48-0.05,24.72
					c-2.86-0.01-5.72-0.01-8.58-0.02C493.6,594.15,493.66,574.48,493.72,554.8z M505.31,581.18c3.19,0.3,5.13-0.95,5.14-5.44
					c0-1.45,0-2.9,0.01-4.34c0-4.02-1.31-5.99-4.33-6.44c-1.29-0.19-2.59-0.37-3.88-0.56c-0.01,5.49-0.02,10.99-0.04,16.48
					C503.24,580.98,504.27,581.08,505.31,581.18z"/>
			</g>
		</g>
		<circle class="st13" cx="373" cy="373" r="361.5"/>
	</g>
</g>
<g id="Layer_2" class="st0">
	<ellipse class="st14" cx="4312.5" cy="131.2" rx="422.49" ry="140"/>
	<ellipse class="st14" cx="4312.5" cy="131.2" rx="422.49" ry="140"/>
	<ellipse class="st14" cx="4312.5" cy="668.83" rx="422.49" ry="140"/>
	<ellipse class="st14" cx="4312.5" cy="668.83" rx="422.49" ry="140"/>
	<g class="st2">
		<g>
			<g>
				<rect x="3981.06" y="175.41" class="st15" width="50.99" height="450"/>
				<rect x="3930.07" y="175.41" class="st15" width="50.99" height="450"/>
			</g>
			<g>
				<rect x="4083.04" y="175.41" class="st15" width="50.99" height="450"/>
				<rect x="4032.05" y="175.41" class="st15" width="50.99" height="450"/>
			</g>
		</g>
		<g>
			<g>
				<rect x="4185.03" y="175.41" class="st15" width="50.99" height="450"/>
				<rect x="4134.03" y="175.41" class="st15" width="50.99" height="450"/>
			</g>
			<g>
				<rect x="4287.01" y="175.41" class="st15" width="50.99" height="450"/>
				<rect x="4236.02" y="175.41" class="st15" width="50.99" height="450"/>
			</g>
		</g>
		<rect x="4338" y="175.41" class="st15" width="50.99" height="450"/>
		<g>
			<rect x="4388.99" y="175.41" class="st15" width="50.99" height="450"/>
			<rect x="4490.98" y="175.41" class="st15" width="50.99" height="450"/>
			<rect x="4439.98" y="175.41" class="st15" width="50.99" height="450"/>
		</g>
		<g>
			<rect x="4541.97" y="175.41" class="st15" width="50.99" height="450"/>
			<rect x="4643.95" y="175.41" class="st15" width="50.99" height="450"/>
			<rect x="4592.96" y="175.41" class="st15" width="50.99" height="450"/>
		</g>
	</g>
</g>
</svg>
